<svg width="33" height="32" viewBox="0 0 33 32" fill="none" xmlns="http://www.w3.org/2000/svg">
<rect x="0.333313" width="32" height="32" rx="4" fill="#01B5F2" fill-opacity="0.25"/>
<path d="M9.83331 16.4L5.93331 12.5L9.83331 8.6L13.7333 12.5L9.83331 16.4ZM13.3333 26V21C12.3166 20.9167 11.3083 20.7957 10.3083 20.637C9.30831 20.4783 8.31664 20.266 7.33331 20L7.83331 18C9.23331 18.3833 10.6376 18.646 12.0463 18.788C13.455 18.93 14.884 19.0007 16.3333 19C17.7833 19 19.2126 18.929 20.6213 18.787C22.03 18.645 23.434 18.3827 24.8333 18L25.3333 20C24.35 20.2667 23.3583 20.4793 22.3583 20.638C21.3583 20.7967 20.35 20.9173 19.3333 21V26H13.3333ZM16.3333 11C15.5 11 14.7916 10.7083 14.2083 10.125C13.625 9.54167 13.3333 8.83333 13.3333 8C13.3333 7.16667 13.625 6.45833 14.2083 5.875C14.7916 5.29167 15.5 5 16.3333 5C17.1666 5 17.875 5.29167 18.4583 5.875C19.0416 6.45833 19.3333 7.16667 19.3333 8C19.3333 8.83333 19.0416 9.54167 18.4583 10.125C17.875 10.7083 17.1666 11 16.3333 11ZM16.3333 18C15.7833 18 15.3123 17.804 14.9203 17.412C14.5283 17.02 14.3326 16.5493 14.3333 16C14.3333 15.45 14.5293 14.979 14.9213 14.587C15.3133 14.195 15.784 13.9993 16.3333 14C16.8833 14 17.3543 14.196 17.7463 14.588C18.1383 14.98 18.334 15.4507 18.3333 16C18.3333 16.55 18.1373 17.021 17.7453 17.413C17.3533 17.805 16.8826 18.0007 16.3333 18ZM21.3833 16L19.6833 13L21.3833 10H24.7833L26.4833 13L24.7833 16H21.3833Z" fill="#1C3380"/>
<path d="M9.83331 16.4L5.93331 12.5L9.83331 8.6L13.7333 12.5L9.83331 16.4ZM13.3333 26V21C12.3166 20.9167 11.3083 20.7957 10.3083 20.637C9.30831 20.4783 8.31664 20.266 7.33331 20L7.83331 18C9.23331 18.3833 10.6376 18.646 12.0463 18.788C13.455 18.93 14.884 19.0007 16.3333 19C17.7833 19 19.2126 18.929 20.6213 18.787C22.03 18.645 23.434 18.3827 24.8333 18L25.3333 20C24.35 20.2667 23.3583 20.4793 22.3583 20.638C21.3583 20.7967 20.35 20.9173 19.3333 21V26H13.3333ZM16.3333 11C15.5 11 14.7916 10.7083 14.2083 10.125C13.625 9.54167 13.3333 8.83333 13.3333 8C13.3333 7.16667 13.625 6.45833 14.2083 5.875C14.7916 5.29167 15.5 5 16.3333 5C17.1666 5 17.875 5.29167 18.4583 5.875C19.0416 6.45833 19.3333 7.16667 19.3333 8C19.3333 8.83333 19.0416 9.54167 18.4583 10.125C17.875 10.7083 17.1666 11 16.3333 11ZM16.3333 18C15.7833 18 15.3123 17.804 14.9203 17.412C14.5283 17.02 14.3326 16.5493 14.3333 16C14.3333 15.45 14.5293 14.979 14.9213 14.587C15.3133 14.195 15.784 13.9993 16.3333 14C16.8833 14 17.3543 14.196 17.7463 14.588C18.1383 14.98 18.334 15.4507 18.3333 16C18.3333 16.55 18.1373 17.021 17.7453 17.413C17.3533 17.805 16.8826 18.0007 16.3333 18ZM21.3833 16L19.6833 13L21.3833 10H24.7833L26.4833 13L24.7833 16H21.3833Z" fill="black" fill-opacity="0.2"/>
</svg>
