<svg width="150" height="74" viewBox="0 0 150 74" fill="none" xmlns="http://www.w3.org/2000/svg">
<path d="M65.1132 1.46094V7.26562L68.002 10.4981V21.9375H66.3867L64.9121 30.7441H84.9081L83.4336 21.9375H81.8164V10.4981L84.7052 7.26562V1.46094H81.334V4.20906H79.2812V1.46094H75.9101V4.20906H73.8828V1.46094H70.5117V4.20906H68.4844V1.46094H65.1132ZM69.7226 11.0156H70.8906V14.1544H69.7226V11.0156ZM74.3222 11.0156H75.4902V14.1544H74.3222V11.0156ZM78.957 11.0156H80.125V14.1544H78.957V11.0156Z" fill="#01B5F2"/>
<path d="M16.716 49.672C16.716 50.8107 16.4547 51.856 15.932 52.808C15.4093 53.7413 14.6067 54.4973 13.524 55.076C12.4413 55.6547 11.0973 55.944 9.492 55.944H6.524V63H1.736V43.344H9.492C11.06 43.344 12.3853 43.6147 13.468 44.156C14.5507 44.6973 15.3627 45.444 15.904 46.396C16.4453 47.348 16.716 48.44 16.716 49.672ZM9.128 52.136C10.0427 52.136 10.724 51.9213 11.172 51.492C11.62 51.0627 11.844 50.456 11.844 49.672C11.844 48.888 11.62 48.2813 11.172 47.852C10.724 47.4227 10.0427 47.208 9.128 47.208H6.524V52.136H9.128ZM29.2327 63L25.1447 55.58H23.9967V63H19.2087V43.344H27.2447C28.794 43.344 30.11 43.6147 31.1927 44.156C32.294 44.6973 33.1153 45.444 33.6567 46.396C34.198 47.3293 34.4687 48.3747 34.4687 49.532C34.4687 50.8387 34.0953 52.0053 33.3487 53.032C32.6207 54.0587 31.538 54.7867 30.1007 55.216L34.6367 63H29.2327ZM23.9967 52.192H26.9647C27.842 52.192 28.4953 51.9773 28.9247 51.548C29.3727 51.1187 29.5967 50.512 29.5967 49.728C29.5967 48.9813 29.3727 48.3933 28.9247 47.964C28.4953 47.5347 27.842 47.32 26.9647 47.32H23.9967V52.192ZM46.7703 63.196C44.9223 63.196 43.2236 62.7667 41.6743 61.908C40.1436 61.0493 38.9209 59.8547 38.0063 58.324C37.1103 56.7747 36.6623 55.0387 36.6623 53.116C36.6623 51.1933 37.1103 49.4667 38.0063 47.936C38.9209 46.4053 40.1436 45.2107 41.6743 44.352C43.2236 43.4933 44.9223 43.064 46.7703 43.064C48.6183 43.064 50.3076 43.4933 51.8383 44.352C53.3876 45.2107 54.6009 46.4053 55.4783 47.936C56.3743 49.4667 56.8223 51.1933 56.8223 53.116C56.8223 55.0387 56.3743 56.7747 55.4783 58.324C54.5823 59.8547 53.3689 61.0493 51.8383 61.908C50.3076 62.7667 48.6183 63.196 46.7703 63.196ZM46.7703 58.828C48.3383 58.828 49.5889 58.3053 50.5223 57.26C51.4743 56.2147 51.9503 54.8333 51.9503 53.116C51.9503 51.38 51.4743 49.9987 50.5223 48.972C49.5889 47.9267 48.3383 47.404 46.7703 47.404C45.1836 47.404 43.9143 47.9173 42.9623 48.944C42.0289 49.9707 41.5623 51.3613 41.5623 53.116C41.5623 54.852 42.0289 56.2427 42.9623 57.288C43.9143 58.3147 45.1836 58.828 46.7703 58.828ZM71.722 59.528H64.386L63.21 63H58.198L65.31 43.344H70.854L77.966 63H72.898L71.722 59.528ZM70.49 55.832L68.054 48.636L65.646 55.832H70.49Z" fill="#1C3380"/>
<path d="M16.716 49.672C16.716 50.8107 16.4547 51.856 15.932 52.808C15.4093 53.7413 14.6067 54.4973 13.524 55.076C12.4413 55.6547 11.0973 55.944 9.492 55.944H6.524V63H1.736V43.344H9.492C11.06 43.344 12.3853 43.6147 13.468 44.156C14.5507 44.6973 15.3627 45.444 15.904 46.396C16.4453 47.348 16.716 48.44 16.716 49.672ZM9.128 52.136C10.0427 52.136 10.724 51.9213 11.172 51.492C11.62 51.0627 11.844 50.456 11.844 49.672C11.844 48.888 11.62 48.2813 11.172 47.852C10.724 47.4227 10.0427 47.208 9.128 47.208H6.524V52.136H9.128ZM29.2327 63L25.1447 55.58H23.9967V63H19.2087V43.344H27.2447C28.794 43.344 30.11 43.6147 31.1927 44.156C32.294 44.6973 33.1153 45.444 33.6567 46.396C34.198 47.3293 34.4687 48.3747 34.4687 49.532C34.4687 50.8387 34.0953 52.0053 33.3487 53.032C32.6207 54.0587 31.538 54.7867 30.1007 55.216L34.6367 63H29.2327ZM23.9967 52.192H26.9647C27.842 52.192 28.4953 51.9773 28.9247 51.548C29.3727 51.1187 29.5967 50.512 29.5967 49.728C29.5967 48.9813 29.3727 48.3933 28.9247 47.964C28.4953 47.5347 27.842 47.32 26.9647 47.32H23.9967V52.192ZM46.7703 63.196C44.9223 63.196 43.2236 62.7667 41.6743 61.908C40.1436 61.0493 38.9209 59.8547 38.0063 58.324C37.1103 56.7747 36.6623 55.0387 36.6623 53.116C36.6623 51.1933 37.1103 49.4667 38.0063 47.936C38.9209 46.4053 40.1436 45.2107 41.6743 44.352C43.2236 43.4933 44.9223 43.064 46.7703 43.064C48.6183 43.064 50.3076 43.4933 51.8383 44.352C53.3876 45.2107 54.6009 46.4053 55.4783 47.936C56.3743 49.4667 56.8223 51.1933 56.8223 53.116C56.8223 55.0387 56.3743 56.7747 55.4783 58.324C54.5823 59.8547 53.3689 61.0493 51.8383 61.908C50.3076 62.7667 48.6183 63.196 46.7703 63.196ZM46.7703 58.828C48.3383 58.828 49.5889 58.3053 50.5223 57.26C51.4743 56.2147 51.9503 54.8333 51.9503 53.116C51.9503 51.38 51.4743 49.9987 50.5223 48.972C49.5889 47.9267 48.3383 47.404 46.7703 47.404C45.1836 47.404 43.9143 47.9173 42.9623 48.944C42.0289 49.9707 41.5623 51.3613 41.5623 53.116C41.5623 54.852 42.0289 56.2427 42.9623 57.288C43.9143 58.3147 45.1836 58.828 46.7703 58.828ZM71.722 59.528H64.386L63.21 63H58.198L65.31 43.344H70.854L77.966 63H72.898L71.722 59.528ZM70.49 55.832L68.054 48.636L65.646 55.832H70.49Z" fill="black" fill-opacity="0.2"/>
<path d="M101.044 49.672C101.044 50.8107 100.783 51.856 100.26 52.808C99.7375 53.7413 98.9348 54.4973 97.8521 55.076C96.7695 55.6547 95.4255 55.944 93.8201 55.944H90.8521V63H86.0641V43.344H93.8201C95.3881 43.344 96.7135 43.6147 97.7961 44.156C98.8788 44.6973 99.6908 45.444 100.232 46.396C100.773 47.348 101.044 48.44 101.044 49.672ZM93.4561 52.136C94.3708 52.136 95.0521 51.9213 95.5001 51.492C95.9481 51.0627 96.1721 50.456 96.1721 49.672C96.1721 48.888 95.9481 48.2813 95.5001 47.852C95.0521 47.4227 94.3708 47.208 93.4561 47.208H90.8521V52.136H93.4561ZM105.945 45.752C105.105 45.752 104.414 45.5093 103.873 45.024C103.35 44.52 103.089 43.904 103.089 43.176C103.089 42.4293 103.35 41.8133 103.873 41.328C104.414 40.824 105.105 40.572 105.945 40.572C106.766 40.572 107.438 40.824 107.961 41.328C108.502 41.8133 108.773 42.4293 108.773 43.176C108.773 43.904 108.502 44.52 107.961 45.024C107.438 45.5093 106.766 45.752 105.945 45.752ZM108.325 47.376V63H103.537V47.376H108.325ZM116.583 42.28V63H111.795V42.28H116.583ZM119.1 55.16C119.1 53.5547 119.399 52.1453 119.996 50.932C120.612 49.7187 121.443 48.7853 122.488 48.132C123.534 47.4787 124.7 47.152 125.988 47.152C127.09 47.152 128.051 47.376 128.872 47.824C129.712 48.272 130.356 48.86 130.804 49.588V47.376H135.592V63H130.804V60.788C130.338 61.516 129.684 62.104 128.844 62.552C128.023 63 127.062 63.224 125.96 63.224C124.691 63.224 123.534 62.8973 122.488 62.244C121.443 61.572 120.612 60.6293 119.996 59.416C119.399 58.184 119.1 56.7653 119.1 55.16ZM130.804 55.188C130.804 53.9933 130.468 53.0507 129.796 52.36C129.143 51.6693 128.34 51.324 127.388 51.324C126.436 51.324 125.624 51.6693 124.952 52.36C124.299 53.032 123.972 53.9653 123.972 55.16C123.972 56.3547 124.299 57.3067 124.952 58.016C125.624 58.7067 126.436 59.052 127.388 59.052C128.34 59.052 129.143 58.7067 129.796 58.016C130.468 57.3253 130.804 56.3827 130.804 55.188ZM143.844 49.98C144.404 49.1213 145.104 48.4493 145.944 47.964C146.784 47.46 147.718 47.208 148.744 47.208V52.276H147.428C146.234 52.276 145.338 52.5373 144.74 53.06C144.143 53.564 143.844 54.46 143.844 55.748V63H139.056V47.376H143.844V49.98Z" fill="#FFCB00"/>
</svg>
