<svg width="32" height="32" viewBox="0 0 32 32" fill="none" xmlns="http://www.w3.org/2000/svg">
<rect width="32" height="32" rx="4" fill="#01B5F2" fill-opacity="0.25"/>
<path d="M13 25V12.775C11.6167 12.4083 10.4873 11.675 9.61199 10.575C8.73666 9.475 8.21599 8.225 8.04999 6.825C8.01666 6.59167 8.09999 6.39567 8.29999 6.237C8.49999 6.07834 8.73332 5.99934 8.99999 6C9.26666 6 9.49999 6.071 9.69999 6.213C9.89999 6.355 10.0167 6.55067 10.05 6.8C10.2333 8 10.75 9 11.6 9.8C12.45 10.6 13.5 11 14.75 11H17.25C17.75 11 18.2167 11.0917 18.65 11.275C19.0833 11.4583 19.475 11.725 19.825 12.075L23.65 15.9C23.8333 16.0833 23.925 16.3167 23.925 16.6C23.925 16.8833 23.8333 17.1167 23.65 17.3C23.4667 17.4833 23.2333 17.575 22.95 17.575C22.6667 17.575 22.4333 17.4833 22.25 17.3L19 14.05V25C19 25.2833 18.904 25.521 18.712 25.713C18.52 25.905 18.2827 26.0007 18 26C17.7167 26 17.479 25.904 17.287 25.712C17.095 25.52 16.9993 25.2827 17 25V20H15V25C15 25.2833 14.904 25.521 14.712 25.713C14.52 25.905 14.2827 26.0007 14 26C13.7167 26 13.479 25.904 13.287 25.712C13.095 25.52 12.9993 25.2827 13 25ZM16 10C15.45 10 14.979 9.804 14.587 9.412C14.195 9.02 13.9993 8.54934 14 8C14 7.45 14.196 6.979 14.588 6.587C14.98 6.195 15.4507 5.99934 16 6C16.55 6 17.021 6.196 17.413 6.588C17.805 6.98 18.0007 7.45067 18 8C18 8.55 17.804 9.021 17.412 9.413C17.02 9.805 16.5493 10.0007 16 10Z" fill="#1C3380"/>
<path d="M13 25V12.775C11.6167 12.4083 10.4873 11.675 9.61199 10.575C8.73666 9.475 8.21599 8.225 8.04999 6.825C8.01666 6.59167 8.09999 6.39567 8.29999 6.237C8.49999 6.07834 8.73332 5.99934 8.99999 6C9.26666 6 9.49999 6.071 9.69999 6.213C9.89999 6.355 10.0167 6.55067 10.05 6.8C10.2333 8 10.75 9 11.6 9.8C12.45 10.6 13.5 11 14.75 11H17.25C17.75 11 18.2167 11.0917 18.65 11.275C19.0833 11.4583 19.475 11.725 19.825 12.075L23.65 15.9C23.8333 16.0833 23.925 16.3167 23.925 16.6C23.925 16.8833 23.8333 17.1167 23.65 17.3C23.4667 17.4833 23.2333 17.575 22.95 17.575C22.6667 17.575 22.4333 17.4833 22.25 17.3L19 14.05V25C19 25.2833 18.904 25.521 18.712 25.713C18.52 25.905 18.2827 26.0007 18 26C17.7167 26 17.479 25.904 17.287 25.712C17.095 25.52 16.9993 25.2827 17 25V20H15V25C15 25.2833 14.904 25.521 14.712 25.713C14.52 25.905 14.2827 26.0007 14 26C13.7167 26 13.479 25.904 13.287 25.712C13.095 25.52 12.9993 25.2827 13 25ZM16 10C15.45 10 14.979 9.804 14.587 9.412C14.195 9.02 13.9993 8.54934 14 8C14 7.45 14.196 6.979 14.588 6.587C14.98 6.195 15.4507 5.99934 16 6C16.55 6 17.021 6.196 17.413 6.588C17.805 6.98 18.0007 7.45067 18 8C18 8.55 17.804 9.021 17.412 9.413C17.02 9.805 16.5493 10.0007 16 10Z" fill="black" fill-opacity="0.2"/>
</svg>
