<svg width="32" height="32" viewBox="0 0 32 32" fill="none" xmlns="http://www.w3.org/2000/svg">
<rect width="32" height="32" rx="4" fill="#01B5F2" fill-opacity="0.25"/>
<path d="M17.725 5.95517C18.4797 8.71563 23.5984 9.62032 27.0016 11.4016C27.0766 13.0516 26.3266 14.8047 24.3438 16.1969C24.4797 19.4875 22.3844 21.3625 18.9859 22.4031C18.9719 23.9594 18.3906 25.4031 16.7688 26.6359L14.0031 24.9297L16.225 23.3266C16.1406 22.1266 15.775 20.875 13.6469 20.1719L12.4141 15.8031C9.85938 15.3156 9.98126 14.3359 9.77501 13.4172L6.73141 14.3734C4.42732 12.9203 4.29851 10.8391 7.02485 10.4641L7.35251 7.05251L9.75157 7.48001L10.2344 5.73579L12.5594 5.36548L13.5297 7.11532L17.725 5.95517Z" fill="#1C3380"/>
<path d="M17.725 5.95517C18.4797 8.71563 23.5984 9.62032 27.0016 11.4016C27.0766 13.0516 26.3266 14.8047 24.3438 16.1969C24.4797 19.4875 22.3844 21.3625 18.9859 22.4031C18.9719 23.9594 18.3906 25.4031 16.7688 26.6359L14.0031 24.9297L16.225 23.3266C16.1406 22.1266 15.775 20.875 13.6469 20.1719L12.4141 15.8031C9.85938 15.3156 9.98126 14.3359 9.77501 13.4172L6.73141 14.3734C4.42732 12.9203 4.29851 10.8391 7.02485 10.4641L7.35251 7.05251L9.75157 7.48001L10.2344 5.73579L12.5594 5.36548L13.5297 7.11532L17.725 5.95517Z" fill="black" fill-opacity="0.2"/>
</svg>
