<svg width="33" height="32" viewBox="0 0 33 32" fill="none" xmlns="http://www.w3.org/2000/svg">
<rect x="0.666656" width="32" height="32" rx="4" fill="#01B5F2" fill-opacity="0.25"/>
<path d="M6.66666 24C6.38333 24 6.14566 23.904 5.95366 23.712C5.76166 23.52 5.66599 23.2827 5.66666 23V20C5.66666 19.45 5.86266 18.979 6.25466 18.587C6.64666 18.195 7.11733 17.9993 7.66666 18H10.9417C11.275 18 11.5917 18.0833 11.8917 18.25C12.1917 18.4167 12.4333 18.6417 12.6167 18.925C13.1 19.575 13.696 20.0833 14.4047 20.45C15.1133 20.8167 15.8673 21 16.6667 21C17.4833 21 18.246 20.8167 18.9547 20.45C19.6633 20.0833 20.2507 19.575 20.7167 18.925C20.9333 18.6417 21.1877 18.4167 21.4797 18.25C21.7717 18.0833 22.0757 18 22.3917 18H25.6667C26.2167 18 26.6877 18.1957 27.0797 18.587C27.4717 18.9783 27.6673 19.4493 27.6667 20V23C27.6667 23.2833 27.5707 23.521 27.3787 23.713C27.1867 23.905 26.9493 24.0007 26.6667 24H21.6667C21.3833 24 21.1457 23.904 20.9537 23.712C20.7617 23.52 20.666 23.2827 20.6667 23V21.725C20.0833 22.1417 19.454 22.4583 18.7787 22.675C18.1033 22.8917 17.3993 23 16.6667 23C15.95 23 15.25 22.8873 14.5667 22.662C13.8833 22.4367 13.25 22.116 12.6667 21.7V23C12.6667 23.2833 12.5707 23.521 12.3787 23.713C12.1867 23.905 11.9493 24.0007 11.6667 24H6.66666ZM16.6667 20C16.0333 20 15.4333 19.854 14.8667 19.562C14.3 19.27 13.825 18.866 13.4417 18.35C13.1583 17.9333 12.804 17.6043 12.3787 17.363C11.9533 17.1217 11.491 17.0007 10.9917 17C11.3583 16.3833 12.1333 15.8957 13.3167 15.537C14.5 15.1783 15.6167 14.9993 16.6667 15C17.7167 15 18.8333 15.179 20.0167 15.537C21.2 15.895 21.975 16.3827 22.3417 17C21.8583 17 21.4 17.121 20.9667 17.363C20.5333 17.605 20.175 17.934 19.8917 18.35C19.525 18.8833 19.0583 19.2917 18.4917 19.575C17.925 19.8583 17.3167 20 16.6667 20ZM8.66666 17C7.83333 17 7.12499 16.7083 6.54166 16.125C5.95833 15.5417 5.66666 14.8333 5.66666 14C5.66666 13.1667 5.95833 12.4583 6.54166 11.875C7.12499 11.2917 7.83333 11 8.66666 11C9.49999 11 10.2083 11.2917 10.7917 11.875C11.375 12.4583 11.6667 13.1667 11.6667 14C11.6667 14.8333 11.375 15.5417 10.7917 16.125C10.2083 16.7083 9.49999 17 8.66666 17ZM24.6667 17C23.8333 17 23.125 16.7083 22.5417 16.125C21.9583 15.5417 21.6667 14.8333 21.6667 14C21.6667 13.1667 21.9583 12.4583 22.5417 11.875C23.125 11.2917 23.8333 11 24.6667 11C25.5 11 26.2083 11.2917 26.7917 11.875C27.375 12.4583 27.6667 13.1667 27.6667 14C27.6667 14.8333 27.375 15.5417 26.7917 16.125C26.2083 16.7083 25.5 17 24.6667 17ZM16.6667 14C15.8333 14 15.125 13.7083 14.5417 13.125C13.9583 12.5417 13.6667 11.8333 13.6667 11C13.6667 10.1667 13.9583 9.45833 14.5417 8.875C15.125 8.29167 15.8333 8 16.6667 8C17.5 8 18.2083 8.29167 18.7917 8.875C19.375 9.45833 19.6667 10.1667 19.6667 11C19.6667 11.8333 19.375 12.5417 18.7917 13.125C18.2083 13.7083 17.5 14 16.6667 14Z" fill="#1C3380"/>
<path d="M6.66666 24C6.38333 24 6.14566 23.904 5.95366 23.712C5.76166 23.52 5.66599 23.2827 5.66666 23V20C5.66666 19.45 5.86266 18.979 6.25466 18.587C6.64666 18.195 7.11733 17.9993 7.66666 18H10.9417C11.275 18 11.5917 18.0833 11.8917 18.25C12.1917 18.4167 12.4333 18.6417 12.6167 18.925C13.1 19.575 13.696 20.0833 14.4047 20.45C15.1133 20.8167 15.8673 21 16.6667 21C17.4833 21 18.246 20.8167 18.9547 20.45C19.6633 20.0833 20.2507 19.575 20.7167 18.925C20.9333 18.6417 21.1877 18.4167 21.4797 18.25C21.7717 18.0833 22.0757 18 22.3917 18H25.6667C26.2167 18 26.6877 18.1957 27.0797 18.587C27.4717 18.9783 27.6673 19.4493 27.6667 20V23C27.6667 23.2833 27.5707 23.521 27.3787 23.713C27.1867 23.905 26.9493 24.0007 26.6667 24H21.6667C21.3833 24 21.1457 23.904 20.9537 23.712C20.7617 23.52 20.666 23.2827 20.6667 23V21.725C20.0833 22.1417 19.454 22.4583 18.7787 22.675C18.1033 22.8917 17.3993 23 16.6667 23C15.95 23 15.25 22.8873 14.5667 22.662C13.8833 22.4367 13.25 22.116 12.6667 21.7V23C12.6667 23.2833 12.5707 23.521 12.3787 23.713C12.1867 23.905 11.9493 24.0007 11.6667 24H6.66666ZM16.6667 20C16.0333 20 15.4333 19.854 14.8667 19.562C14.3 19.27 13.825 18.866 13.4417 18.35C13.1583 17.9333 12.804 17.6043 12.3787 17.363C11.9533 17.1217 11.491 17.0007 10.9917 17C11.3583 16.3833 12.1333 15.8957 13.3167 15.537C14.5 15.1783 15.6167 14.9993 16.6667 15C17.7167 15 18.8333 15.179 20.0167 15.537C21.2 15.895 21.975 16.3827 22.3417 17C21.8583 17 21.4 17.121 20.9667 17.363C20.5333 17.605 20.175 17.934 19.8917 18.35C19.525 18.8833 19.0583 19.2917 18.4917 19.575C17.925 19.8583 17.3167 20 16.6667 20ZM8.66666 17C7.83333 17 7.12499 16.7083 6.54166 16.125C5.95833 15.5417 5.66666 14.8333 5.66666 14C5.66666 13.1667 5.95833 12.4583 6.54166 11.875C7.12499 11.2917 7.83333 11 8.66666 11C9.49999 11 10.2083 11.2917 10.7917 11.875C11.375 12.4583 11.6667 13.1667 11.6667 14C11.6667 14.8333 11.375 15.5417 10.7917 16.125C10.2083 16.7083 9.49999 17 8.66666 17ZM24.6667 17C23.8333 17 23.125 16.7083 22.5417 16.125C21.9583 15.5417 21.6667 14.8333 21.6667 14C21.6667 13.1667 21.9583 12.4583 22.5417 11.875C23.125 11.2917 23.8333 11 24.6667 11C25.5 11 26.2083 11.2917 26.7917 11.875C27.375 12.4583 27.6667 13.1667 27.6667 14C27.6667 14.8333 27.375 15.5417 26.7917 16.125C26.2083 16.7083 25.5 17 24.6667 17ZM16.6667 14C15.8333 14 15.125 13.7083 14.5417 13.125C13.9583 12.5417 13.6667 11.8333 13.6667 11C13.6667 10.1667 13.9583 9.45833 14.5417 8.875C15.125 8.29167 15.8333 8 16.6667 8C17.5 8 18.2083 8.29167 18.7917 8.875C19.375 9.45833 19.6667 10.1667 19.6667 11C19.6667 11.8333 19.375 12.5417 18.7917 13.125C18.2083 13.7083 17.5 14 16.6667 14Z" fill="black" fill-opacity="0.2"/>
</svg>
